<!DOCTYPE svg PUBLIC "-//W3C//DTD SVG 20010904//EN" "http://www.w3.org/TR/2001/REC-SVG-20010904/DTD/svg10.dtd">
<svg version="1.0" xmlns="http://www.w3.org/2000/svg" width="843px" height="596px" viewBox="0 0 8430 5960" preserveAspectRatio="xMidYMid meet">
<g id="layer101" fill="#e7b45a" stroke="none">
 <path d="M541 4419 c28 -79 79 -225 114 -323 l63 -179 -113 -271 c-77 -184 -109 -273 -102 -277 16 -9 636 -132 827 -164 85 -14 163 -27 173 -29 16 -4 17 30 17 592 l0 597 -193 33 c-163 28 -744 141 -814 159 -22 5 -20 -2 28 -138z"/>
 <path d="M7909 4556 c-7 -7 -590 -122 -796 -157 l-193 -33 0 -596 0 -597 198 34 c273 47 805 153 816 164 5 4 -38 121 -103 277 l-112 268 110 314 c61 172 111 317 111 322 0 8 -23 11 -31 4z"/>
 <path d="M2340 4005 l0 -57 -62 7 c-90 10 -507 64 -545 71 l-33 6 0 -596 c0 -328 1 -596 3 -597 1 0 38 -6 82 -13 70 -10 80 -14 78 -31 -2 -11 -12 -83 -24 -159 -24 -159 -21 -197 31 -382 28 -99 29 -111 19 -181 -12 -83 -9 -90 51 -128 41 -26 169 -71 223 -79 59 -8 79 5 117 79 19 37 40 69 45 71 12 5 57 -9 215 -66 63 -23 140 -50 170 -60 30 -11 100 -35 155 -55 55 -20 125 -45 155 -55 107 -36 222 -78 226 -83 2 -2 -3 -42 -12 -88 l-16 -84 35 -31 c65 -60 267 -121 315 -95 11 6 35 36 52 67 25 43 52 70 118 117 157 114 206 164 271 277 8 14 27 48 43 75 16 28 75 142 131 255 l101 205 4 88 c3 71 1 94 -15 126 l-20 39 111 7 c61 3 152 5 201 3 88 -4 87 -4 -27 -6 -65 -1 -118 -5 -118 -9 0 -5 12 -105 26 -223 18 -144 31 -221 41 -232 9 -9 47 -27 87 -38 39 -12 96 -30 126 -41 110 -38 255 -77 265 -71 45 27 353 263 357 273 3 8 -4 94 -15 192 l-21 177 -25 1 c-14 1 82 9 214 19 132 10 265 21 295 24 l55 6 50 -64 c50 -65 90 -133 113 -196 18 -47 27 -227 13 -262 -9 -25 -15 -28 -61 -28 -49 0 -50 -1 -50 -30 0 -29 1 -30 50 -30 47 0 50 -2 50 -25 0 -21 5 -25 29 -25 45 0 44 -14 -3 -47 -81 -57 -111 -174 -68 -260 37 -71 115 -123 188 -123 44 0 118 34 154 71 87 90 77 217 -24 306 -25 22 -46 43 -46 47 0 3 14 6 30 6 25 0 30 4 30 25 0 23 3 25 50 25 49 0 50 1 50 30 0 29 -1 30 -49 30 -28 0 -53 5 -56 11 -4 6 -9 46 -12 89 -6 88 9 183 39 242 10 21 18 43 18 50 0 30 -147 152 -209 174 l-36 13 35 1 c19 0 53 3 75 6 30 4 36 3 25 -5 -10 -7 -11 -11 -3 -11 7 0 47 -32 88 -71 82 -78 138 -174 149 -256 6 -42 6 -43 -38 -63 -36 -16 -43 -24 -39 -40 8 -30 17 -32 63 -14 43 17 51 15 63 -21 2 -6 14 -4 30 4 29 16 47 8 32 -13 -43 -58 -49 -73 -53 -127 -7 -99 48 -182 144 -215 49 -17 79 -17 128 0 173 60 198 290 42 381 -23 13 -58 27 -78 30 -44 8 -49 20 -12 29 22 6 25 10 19 36 -6 27 -3 31 34 46 40 16 47 27 35 58 -5 13 -11 13 -55 -3 l-49 -19 -30 46 c-37 56 -70 159 -70 218 0 33 -5 46 -17 52 -11 4 10 10 57 17 l75 10 3 598 2 599 -27 -6 c-126 -26 -784 -97 -1153 -126 -463 -35 -603 -41 -1155 -47 -492 -5 -970 4 -1217 24 l-78 6 0 53 c0 63 6 60 -140 69 -109 7 -502 42 -572 51 l-48 6 0 -57z m4214 -221 c22 -21 20 -43 -6 -71 -25 -27 -50 -29 -72 -7 -22 21 -20 50 4 74 24 24 53 26 74 4z m-4304 -40 c61 -33 94 -72 84 -97 -9 -25 -36 -21 -94 15 -70 44 -150 50 -200 16 -96 -65 -117 -186 -50 -291 60 -95 174 -133 265 -88 47 23 71 20 81 -11 15 -47 -80 -94 -175 -85 -76 6 -139 35 -190 86 -159 159 -123 420 67 482 53 17 155 4 212 -27z m3934 0 c19 -19 20 -25 3 -47 -9 -14 -42 -21 -142 -32 -72 -8 -138 -15 -147 -15 -16 0 -18 -11 -18 -86 0 -84 0 -86 23 -81 12 3 61 9 109 12 79 7 87 6 97 -13 7 -14 7 -24 -3 -38 -11 -15 -36 -21 -118 -29 l-103 -10 -3 -83 -3 -84 28 6 c15 3 82 11 147 17 112 11 120 10 133 -7 11 -15 11 -21 -1 -38 -12 -19 -34 -23 -190 -40 -141 -15 -179 -16 -191 -6 -13 10 -15 53 -15 264 0 186 3 256 13 269 9 12 52 21 182 35 94 11 173 20 177 21 4 0 14 -6 22 -15z m-3429 -29 c253 -22 246 -14 243 -317 -4 -299 15 -284 -313 -253 -204 19 -210 21 -240 57 l-25 30 0 225 0 225 30 30 c29 28 34 30 83 24 29 -3 128 -13 222 -21z m2775 -44 c6 -12 10 -107 10 -238 l0 -219 88 1 c81 0 87 -2 90 -21 5 -38 -22 -47 -186 -60 -222 -18 -249 -18 -261 5 -7 13 -6 24 4 37 10 15 30 20 92 24 l78 5 3 229 c1 149 6 234 13 243 17 19 57 16 69 -6z m-2361 -4 c6 -9 12 -84 13 -205 l3 -191 153 194 c215 274 213 274 210 -96 l-3 -264 -23 -3 c-49 -7 -52 6 -52 215 l0 195 -136 -174 c-172 -219 -173 -220 -204 -216 l-25 3 -3 269 c-2 280 -2 285 39 286 9 0 22 -6 28 -13z m1998 -27 c43 -24 60 -55 41 -77 -15 -18 -37 -16 -83 7 -43 22 -117 26 -162 9 -73 -27 -133 -119 -133 -204 0 -148 138 -244 266 -186 23 10 45 24 48 30 13 20 64 13 71 -10 16 -50 -91 -109 -201 -109 -119 0 -210 63 -251 173 -14 40 -16 140 -3 187 24 87 96 162 187 196 57 21 169 13 220 -16z m1371 22 c9 -7 12 -55 10 -207 -3 -176 -5 -199 -20 -209 -13 -8 -23 -8 -35 0 -16 10 -18 33 -21 194 -2 151 0 187 13 206 16 25 31 29 53 16z m-2779 -25 c6 -9 12 -84 13 -202 l3 -188 149 194 c81 107 155 197 165 200 9 4 24 2 34 -3 15 -8 17 -31 17 -273 0 -254 -1 -265 -20 -275 -14 -8 -26 -8 -40 0 -18 10 -20 23 -22 205 l-3 195 -153 -200 c-213 -279 -212 -279 -212 85 0 144 3 265 7 268 11 12 50 8 62 -6z m911 -2 c10 -12 10 -21 2 -40 -12 -25 -12 -25 -162 -25 l-150 0 0 -85 0 -85 114 0 c96 0 115 -3 120 -16 15 -39 -1 -51 -81 -58 -42 -3 -93 -6 -115 -6 l-38 0 0 -82 0 -81 145 6 c121 5 147 3 160 -9 18 -19 19 -38 3 -51 -20 -16 -356 -27 -374 -12 -11 9 -14 59 -14 275 0 240 2 264 18 273 9 6 91 11 188 11 142 0 174 -3 184 -15z m-2563 -575 c639 -82 1349 -124 2113 -124 770 0 1321 32 2078 121 215 25 234 25 249 10 15 -14 15 -18 0 -40 -17 -27 -26 -28 -372 -67 -1315 -149 -2669 -145 -4010 11 -279 32 -305 40 -290 88 8 27 33 27 232 1z m229 -365 l1 -60 -4 57 c-3 49 -7 57 -26 62 -19 4 -18 4 3 3 24 -2 25 -5 26 -62z m1099 -25 c121 -5 303 -11 405 -12 134 -2 154 -3 71 -5 l-113 -4 -97 -88 c-120 -111 -156 -141 -169 -141 -6 0 -73 25 -149 56 -202 82 -264 104 -287 100 -12 -2 -15 -1 -8 1 7 3 12 24 12 59 l0 55 58 -6 c31 -3 156 -10 277 -15z m1693 3 c-16 -2 -40 -2 -55 0 -16 2 -3 4 27 4 30 0 43 -2 28 -4z m-221 -10 c-20 -2 -52 -2 -70 0 -17 2 0 4 38 4 39 0 53 -2 32 -4z m-2632 -68 c45 -18 51 -35 31 -85 -9 -22 -16 -45 -16 -51 0 -5 25 -21 55 -34 30 -14 55 -29 55 -35 0 -5 -5 -30 -12 -55 -11 -39 -16 -45 -39 -45 -15 0 -42 7 -62 15 -31 13 -36 13 -51 -4 -9 -9 -19 -32 -22 -49 -9 -46 -23 -53 -72 -39 -63 19 -67 26 -47 92 9 31 13 60 10 64 -4 3 -27 13 -53 21 -53 17 -61 33 -42 91 16 46 27 51 76 34 53 -19 84 -19 84 0 0 27 40 95 56 95 8 0 30 -7 49 -15z m463 8 c-10 -2 -26 -2 -35 0 -10 3 -2 5 17 5 19 0 27 -2 18 -5z m1930 -36 c2 -16 -2 -34 -8 -42 -18 -22 -45 -11 -48 19 -5 41 5 58 30 54 17 -2 24 -11 26 -31z m-1690 16 c-10 -2 -26 -2 -35 0 -10 3 -2 5 17 5 19 0 27 -2 18 -5z m2206 -45 c35 -49 6 -100 -34 -63 -19 17 -27 65 -13 78 12 13 32 7 47 -15z m-576 -134 c3 -34 -18 -60 -43 -50 -9 3 -15 18 -15 39 0 40 7 49 35 45 14 -2 21 -12 23 -34z m-1897 -130 c36 -15 40 -19 34 -43 -9 -38 -19 -44 -58 -37 -56 10 -70 26 -56 64 13 37 22 38 80 16z m2248 -8 c3 -21 -23 -46 -49 -46 -9 0 -25 6 -35 14 -19 14 -19 14 0 36 24 27 78 25 84 -4z m-1252 -122 c21 -21 24 -32 19 -62 -11 -70 -83 -96 -131 -47 -31 30 -32 73 -4 109 28 36 80 36 116 0z m-577 -35 c27 -17 48 -35 44 -40 -8 -14 -98 -11 -118 4 -14 10 -15 18 -7 40 13 34 20 34 81 -4z m317 -71 c51 -47 14 -128 -59 -128 -49 0 -78 28 -78 75 0 22 8 43 20 55 28 28 87 27 117 -2z m383 -126 c13 -10 23 -33 27 -58 5 -36 2 -43 -22 -62 -39 -31 -88 -29 -114 4 -60 76 34 177 109 116z m-255 -117 c35 -34 34 -86 -1 -114 -36 -29 -79 -27 -110 5 -22 21 -25 31 -20 62 13 70 83 96 131 47z"/>
 <path d="M2672 3468 c-20 -20 -14 -56 13 -74 29 -19 61 -11 70 17 15 46 -50 90 -83 57z"/>
 <path d="M5405 2326 c-17 -7 -36 -25 -43 -40 -15 -33 -351 -285 -397 -297 -27 -8 -35 -16 -40 -42 -4 -17 -18 -70 -31 -116 -13 -46 -24 -89 -24 -96 0 -15 315 -351 337 -359 13 -6 412 122 456 146 20 10 30 32 57 123 10 33 34 112 54 175 20 63 36 126 36 139 0 22 -34 62 -285 328 -53 56 -70 61 -120 39z m-95 -191 c35 -18 42 -55 11 -55 -32 0 -68 17 -75 35 -14 36 15 45 64 20z m289 -91 c24 -30 20 -44 -12 -44 -31 0 -67 27 -67 51 0 30 53 26 79 -7z m-509 -78 c29 -36 -10 -85 -45 -56 -15 13 -20 51 -8 63 11 12 40 8 53 -7z m45 -176 c18 -20 14 -70 -6 -70 -26 0 -49 22 -49 49 0 46 24 55 55 21z m423 -81 c5 -25 -37 -71 -62 -67 -32 5 -32 42 0 67 31 24 57 24 62 0z m-373 -93 c18 -27 11 -56 -14 -56 -23 0 -41 20 -41 45 0 42 31 48 55 11z"/>
 </g>
<g id="layer102" fill="#477aac" stroke="none">
 <path d="M541 4419 c28 -79 79 -225 114 -323 l63 -179 -113 -271 c-77 -184 -109 -273 -102 -277 16 -9 636 -132 827 -164 85 -14 163 -27 173 -29 16 -4 17 30 17 592 l0 597 -193 33 c-163 28 -744 141 -814 159 -22 5 -20 -2 28 -138z"/>
 <path d="M7909 4556 c-7 -7 -590 -122 -796 -157 l-193 -33 0 -596 0 -597 198 34 c273 47 805 153 816 164 5 4 -38 121 -103 277 l-112 268 110 314 c61 172 111 317 111 322 0 8 -23 11 -31 4z"/>
 <path d="M2340 4005 l0 -57 -62 7 c-90 10 -507 64 -545 71 l-33 6 0 -595 c0 -559 1 -596 18 -601 16 -5 311 -44 517 -69 l100 -12 3 -56 3 -56 127 -12 c219 -22 566 -51 600 -51 l32 0 0 56 0 56 48 -6 c227 -28 1319 -38 1782 -17 318 15 742 45 1010 72 221 22 757 87 778 94 9 3 12 133 12 600 l0 597 -27 -6 c-126 -26 -785 -97 -1153 -126 -463 -35 -603 -41 -1155 -47 -492 -5 -970 4 -1217 24 l-78 6 0 53 c0 63 6 60 -140 69 -109 7 -502 42 -572 51 l-48 6 0 -57z m4214 -221 c22 -21 20 -43 -6 -71 -25 -27 -50 -29 -72 -7 -22 21 -20 50 4 74 24 24 53 26 74 4z m-4304 -40 c61 -33 94 -72 84 -97 -9 -25 -36 -21 -94 15 -70 44 -150 50 -200 16 -96 -65 -117 -186 -50 -291 60 -95 174 -133 265 -88 47 23 71 20 81 -11 15 -47 -80 -94 -175 -85 -76 6 -139 35 -190 86 -159 159 -123 420 67 482 53 17 155 4 212 -27z m3934 0 c19 -19 20 -25 3 -47 -9 -14 -42 -21 -142 -32 -72 -8 -138 -15 -147 -15 -16 0 -18 -11 -18 -86 0 -84 0 -86 23 -81 12 3 61 9 109 12 79 7 87 6 97 -13 7 -14 7 -24 -3 -38 -11 -15 -36 -21 -118 -29 l-103 -10 -3 -83 -3 -84 28 6 c15 3 82 11 147 17 112 11 120 10 133 -7 11 -15 11 -21 -1 -38 -12 -19 -34 -23 -190 -40 -141 -15 -179 -16 -191 -6 -13 10 -15 53 -15 264 0 186 3 256 13 269 9 12 52 21 182 35 94 11 173 20 177 21 4 0 14 -6 22 -15z m-3429 -29 c253 -22 246 -14 243 -317 -4 -299 15 -284 -313 -253 -204 19 -210 21 -240 57 l-25 30 0 225 0 225 30 30 c29 28 34 30 83 24 29 -3 128 -13 222 -21z m2775 -44 c6 -12 10 -107 10 -238 l0 -219 88 1 c81 0 87 -2 90 -21 5 -38 -22 -47 -186 -60 -222 -18 -249 -18 -261 5 -7 13 -6 24 4 37 10 15 30 20 92 24 l78 5 3 229 c1 149 6 234 13 243 17 19 57 16 69 -6z m-2361 -4 c6 -9 12 -84 13 -205 l3 -191 153 194 c215 274 213 274 210 -96 l-3 -264 -23 -3 c-49 -7 -52 6 -52 215 l0 195 -136 -174 c-172 -219 -173 -220 -204 -216 l-25 3 -3 269 c-2 280 -2 285 39 286 9 0 22 -6 28 -13z m1998 -27 c43 -24 60 -55 41 -77 -15 -18 -37 -16 -83 7 -43 22 -117 26 -162 9 -73 -27 -133 -119 -133 -204 0 -148 138 -244 266 -186 23 10 45 24 48 30 13 20 64 13 71 -10 16 -50 -91 -109 -201 -109 -119 0 -210 63 -251 173 -14 40 -16 140 -3 187 24 87 96 162 187 196 57 21 169 13 220 -16z m1371 22 c9 -7 12 -55 10 -207 -3 -176 -5 -199 -20 -209 -13 -8 -23 -8 -35 0 -16 10 -18 33 -21 194 -2 151 0 187 13 206 16 25 31 29 53 16z m-2779 -25 c6 -9 12 -84 13 -202 l3 -188 149 194 c81 107 155 197 165 200 9 4 24 2 34 -3 15 -8 17 -31 17 -273 0 -254 -1 -265 -20 -275 -14 -8 -26 -8 -40 0 -18 10 -20 23 -22 205 l-3 195 -153 -200 c-213 -279 -212 -279 -212 85 0 144 3 265 7 268 11 12 50 8 62 -6z m911 -2 c10 -12 10 -21 2 -40 -12 -25 -12 -25 -162 -25 l-150 0 0 -85 0 -85 114 0 c96 0 115 -3 120 -16 15 -39 -1 -51 -81 -58 -42 -3 -93 -6 -115 -6 l-38 0 0 -82 0 -81 145 6 c121 5 147 3 160 -9 18 -19 19 -38 3 -51 -20 -16 -356 -27 -374 -12 -11 9 -14 59 -14 275 0 240 2 264 18 273 9 6 91 11 188 11 142 0 174 -3 184 -15z m-2563 -575 c639 -82 1349 -124 2113 -124 770 0 1321 32 2078 121 215 25 234 25 249 10 15 -14 15 -18 0 -40 -17 -27 -26 -28 -372 -67 -1315 -149 -2669 -145 -4010 11 -279 32 -305 40 -290 88 8 27 33 27 232 1z"/>
 <path d="M2672 3468 c-20 -20 -14 -56 13 -74 29 -19 61 -11 70 17 15 46 -50 90 -83 57z"/>
 </g>

</svg>