<!DOCTYPE svg PUBLIC "-//W3C//DTD SVG 20010904//EN" "http://www.w3.org/TR/2001/REC-SVG-20010904/DTD/svg10.dtd">
<svg version="1.0" xmlns="http://www.w3.org/2000/svg" width="843px" height="596px" viewBox="0 0 8430 5960" preserveAspectRatio="xMidYMid meet">
<g id="layer101" fill="#477bad" stroke="none">
 <path d="M0 2980 l0 -2980 4215 0 4215 0 0 2980 0 2980 -4215 0 -4215 0 0 -2980z"/>
 </g>
<g id="layer102" fill="#e8b45a" stroke="none">
 <path d="M0 2980 l0 -2980 4215 0 4215 0 0 2980 0 2980 -4215 0 -4215 0 0 -2980z m682 1546 c143 -31 677 -131 806 -151 l42 -7 0 -599 c0 -474 -3 -599 -13 -599 -29 0 -444 76 -697 127 -151 31 -287 58 -302 61 -16 2 -28 8 -28 13 0 5 50 129 110 274 61 146 110 269 110 274 0 4 -49 148 -110 320 -60 171 -110 316 -110 321 0 5 6 7 13 5 6 -2 87 -20 179 -39z m7155 -286 l-113 -322 114 -275 c62 -151 112 -276 110 -278 -12 -10 -982 -195 -1024 -195 -12 0 -14 100 -14 599 l0 599 33 5 c233 41 588 107 772 146 127 26 231 47 233 46 1 -1 -48 -147 -111 -325z m-5187 -204 c146 -13 306 -27 357 -31 l92 -7 3 -57 3 -56 105 -6 c58 -3 305 -12 550 -19 888 -27 1940 30 2795 150 77 11 150 20 162 20 l23 0 0 -600 c0 -436 -3 -600 -11 -600 -6 0 -136 -16 -288 -35 -297 -37 -683 -78 -901 -94 -135 -10 -178 -13 -540 -32 -437 -23 -1282 -20 -1772 7 l-128 7 0 -53 0 -53 -117 7 c-65 4 -234 18 -377 32 -142 13 -263 24 -268 24 -4 0 -8 25 -8 55 0 49 -2 55 -22 59 -23 5 -586 76 -600 76 -5 0 -8 271 -8 601 l0 602 53 -7 c28 -3 169 -21 312 -39 l260 -34 3 54 c4 64 -31 61 322 29z"/>
 <path d="M6492 3784 c-17 -12 -22 -24 -20 -47 2 -27 8 -33 31 -35 16 -2 35 2 43 9 21 17 18 66 -5 79 -25 13 -22 13 -49 -6z"/>
 <path d="M2060 3771 c-115 -24 -183 -115 -183 -246 -1 -128 75 -246 190 -297 102 -45 268 -14 261 50 -4 36 -28 39 -84 12 -129 -63 -294 60 -296 219 0 61 8 87 39 129 61 82 162 90 265 22 48 -32 78 -32 78 1 0 62 -169 130 -270 110z"/>
 <path d="M5970 3731 c-80 -9 -151 -20 -157 -24 -10 -6 -13 -72 -13 -272 0 -201 3 -264 13 -268 14 -5 354 30 367 38 12 7 13 35 2 52 -6 9 -36 9 -137 -2 -194 -22 -175 -29 -175 68 l0 84 112 12 c106 11 127 19 128 47 0 28 -27 34 -101 24 -41 -5 -89 -10 -106 -10 l-33 0 0 85 0 84 33 5 c17 3 84 11 147 17 122 12 143 20 138 53 -4 28 -32 28 -218 7z"/>
 <path d="M2462 3723 c-35 -14 -42 -58 -42 -263 0 -216 7 -257 51 -280 18 -10 366 -49 447 -50 13 0 34 11 47 25 l25 24 0 231 c0 305 23 279 -275 305 -185 16 -231 17 -253 8z m294 -280 c12 -46 -14 -71 -61 -59 -46 12 -53 80 -11 95 28 11 65 -7 72 -36z"/>
 <path d="M5473 3682 c-9 -6 -13 -70 -15 -242 l-3 -235 -84 -10 c-61 -7 -87 -15 -95 -27 -8 -13 -7 -21 4 -32 13 -13 37 -13 205 0 210 16 220 18 229 41 14 35 -12 44 -101 37 l-83 -7 0 236 c0 205 -2 236 -16 241 -20 8 -26 7 -41 -2z"/>
 <path d="M3107 3664 c-4 -4 -7 -123 -7 -264 0 -273 3 -290 47 -276 10 3 88 95 173 203 l155 198 3 -207 c2 -198 3 -207 23 -213 47 -15 50 -1 47 279 l-3 261 -30 2 c-26 2 -36 -5 -70 -50 -22 -28 -91 -117 -155 -197 l-115 -145 -5 205 -5 205 -25 3 c-14 2 -29 0 -33 -4z"/>
 <path d="M4975 3661 c-84 -22 -154 -80 -196 -161 -19 -36 -23 -60 -23 -125 1 -90 16 -134 66 -190 52 -59 101 -80 193 -80 71 0 86 3 135 31 47 27 55 36 55 60 0 40 -23 41 -81 5 -118 -75 -259 -13 -294 131 -18 70 8 150 66 205 70 67 154 79 244 33 47 -24 72 -17 68 19 -6 52 -146 95 -233 72z"/>
 <path d="M6487 3654 c-4 -4 -7 -97 -7 -206 0 -213 3 -223 49 -198 21 11 21 17 19 208 l-3 197 -25 3 c-14 2 -29 0 -33 -4z"/>
 <path d="M3701 3636 c-8 -9 -11 -90 -9 -272 l3 -259 30 0 c27 0 44 19 180 197 82 108 153 197 157 197 4 1 9 -90 10 -201 l3 -203 24 -3 c13 -2 28 2 32 10 5 7 9 126 9 263 0 352 0 352 -210 78 -83 -109 -155 -199 -161 -201 -5 -2 -9 76 -9 196 0 173 -2 201 -16 206 -23 9 -30 8 -43 -8z"/>
 <path d="M4464 3643 c-121 -3 -165 -7 -173 -17 -8 -9 -11 -92 -9 -272 l3 -259 170 -3 c204 -3 217 -1 213 36 l-3 27 -158 3 -158 3 3 82 3 82 115 5 115 5 0 30 0 30 -117 3 -118 3 0 84 0 85 83 1 c45 1 116 4 157 8 69 6 75 8 78 30 4 23 -13 43 -33 39 -5 -2 -83 -4 -171 -5z"/>
 <path d="M1881 3061 c-7 -13 -6 -23 3 -36 10 -14 56 -23 247 -45 717 -86 1309 -120 2094 -120 606 0 1046 19 1565 65 265 24 712 76 737 86 24 9 33 52 13 64 -5 3 -62 -1 -127 -9 -493 -63 -1010 -105 -1568 -127 -326 -13 -1230 -7 -1520 10 -458 27 -919 68 -1255 111 -188 24 -177 24 -189 1z"/>
 </g>
<g id="layer103" fill="#ffffff" stroke="none">
 <path d="M0 2980 l0 -2980 4215 0 4215 0 0 2980 0 2980 -4215 0 -4215 0 0 -2980z m682 1546 c143 -31 677 -131 806 -151 l42 -7 0 -599 c0 -474 -3 -599 -13 -599 -29 0 -444 76 -697 127 -151 31 -287 58 -302 61 -16 2 -28 8 -28 13 0 5 50 129 110 274 61 146 110 269 110 274 0 4 -49 148 -110 320 -60 171 -110 316 -110 321 0 5 6 7 13 5 6 -2 87 -20 179 -39z m7155 -286 l-113 -322 114 -275 c62 -151 112 -276 110 -278 -12 -10 -982 -195 -1024 -195 -12 0 -14 100 -14 599 l0 599 33 5 c233 41 588 107 772 146 127 26 231 47 233 46 1 -1 -48 -147 -111 -325z m-5187 -204 c146 -13 306 -27 357 -31 l92 -7 3 -57 3 -56 105 -6 c58 -3 305 -12 550 -19 888 -27 1940 30 2795 150 77 11 150 20 162 20 l23 0 0 -599 0 -599 -66 -7 c-40 -5 -68 -13 -71 -21 -11 -28 20 -158 53 -224 45 -90 50 -93 103 -69 24 11 45 18 47 17 1 -2 5 -15 9 -29 6 -23 2 -27 -39 -43 -40 -15 -45 -20 -36 -36 15 -29 12 -37 -16 -44 -37 -10 -24 -30 26 -38 179 -31 229 -271 78 -374 -78 -53 -159 -52 -239 1 -47 31 -89 109 -89 168 0 41 22 101 47 129 22 25 4 45 -25 29 -28 -15 -29 -15 -36 14 -6 25 -7 25 -44 9 -20 -9 -42 -18 -48 -20 -6 -3 -16 7 -22 21 -11 25 -10 27 34 45 l46 20 -7 43 c-16 102 -92 220 -187 292 -46 35 -69 45 -97 45 -21 0 -41 -3 -44 -6 -4 -4 19 -22 51 -41 31 -19 79 -55 105 -81 53 -52 53 -46 13 -157 -20 -55 -25 -88 -25 -155 1 -128 4 -134 68 -138 50 -3 52 -4 49 -30 -3 -25 -7 -27 -50 -30 -43 -3 -48 -5 -48 -28 0 -20 -5 -24 -30 -24 -34 0 -42 -25 -11 -35 32 -10 89 -81 101 -126 30 -111 -40 -229 -155 -260 -44 -12 -94 -5 -145 21 -136 70 -149 265 -23 353 51 36 54 47 13 47 -25 0 -30 4 -30 24 0 23 -4 25 -52 28 -49 3 -53 5 -53 28 0 23 4 25 51 28 49 3 52 5 58 34 13 65 6 186 -14 252 -21 66 -97 191 -144 235 l-25 23 -233 -16 c-128 -9 -248 -19 -265 -22 -40 -6 -39 -1 -15 -204 10 -80 16 -153 14 -163 -5 -26 -347 -277 -377 -277 -43 0 -439 130 -456 149 -10 13 -22 77 -38 202 -12 101 -25 201 -28 222 l-6 37 -83 0 -83 0 19 -42 c14 -31 20 -66 20 -120 l0 -77 -129 -258 c-189 -378 -223 -424 -413 -562 -68 -48 -97 -77 -128 -127 -26 -41 -49 -66 -64 -70 -59 -14 -261 53 -310 104 l-26 28 15 83 c9 46 14 85 11 88 -3 3 -211 78 -463 168 l-458 162 -39 -71 c-22 -39 -44 -75 -50 -79 -6 -4 -40 -6 -76 -4 -77 5 -204 54 -250 97 -29 27 -30 30 -23 87 12 88 9 108 -27 238 -39 143 -42 241 -12 405 11 58 19 106 17 108 -1 1 -38 7 -83 14 l-82 11 0 600 0 600 53 -7 c28 -3 169 -21 312 -39 l260 -34 3 54 c4 64 -31 61 322 29z m2846 -1720 c172 -177 314 -339 314 -356 0 -31 -119 -413 -133 -427 -20 -20 -449 -162 -469 -154 -18 6 -299 299 -324 337 -13 18 -10 36 18 143 32 118 34 122 65 130 49 14 379 260 397 296 23 47 99 65 132 31z"/>
 <path d="M6492 3784 c-17 -12 -22 -24 -20 -47 2 -27 8 -33 31 -35 16 -2 35 2 43 9 21 17 18 66 -5 79 -25 13 -22 13 -49 -6z"/>
 <path d="M2060 3771 c-115 -24 -183 -115 -183 -246 -1 -128 75 -246 190 -297 102 -45 268 -14 261 50 -4 36 -28 39 -84 12 -129 -63 -294 60 -296 219 0 61 8 87 39 129 61 82 162 90 265 22 48 -32 78 -32 78 1 0 62 -169 130 -270 110z"/>
 <path d="M5970 3731 c-80 -9 -151 -20 -157 -24 -10 -6 -13 -72 -13 -272 0 -201 3 -264 13 -268 14 -5 354 30 367 38 12 7 13 35 2 52 -6 9 -36 9 -137 -2 -194 -22 -175 -29 -175 68 l0 84 112 12 c106 11 127 19 128 47 0 28 -27 34 -101 24 -41 -5 -89 -10 -106 -10 l-33 0 0 85 0 84 33 5 c17 3 84 11 147 17 122 12 143 20 138 53 -4 28 -32 28 -218 7z"/>
 <path d="M2462 3723 c-35 -14 -42 -58 -42 -263 0 -216 7 -257 51 -280 18 -10 366 -49 447 -50 13 0 34 11 47 25 l25 24 0 231 c0 305 23 279 -275 305 -185 16 -231 17 -253 8z m294 -280 c12 -46 -14 -71 -61 -59 -46 12 -53 80 -11 95 28 11 65 -7 72 -36z"/>
 <path d="M5473 3682 c-9 -6 -13 -70 -15 -242 l-3 -235 -84 -10 c-61 -7 -87 -15 -95 -27 -8 -13 -7 -21 4 -32 13 -13 37 -13 205 0 210 16 220 18 229 41 14 35 -12 44 -101 37 l-83 -7 0 236 c0 205 -2 236 -16 241 -20 8 -26 7 -41 -2z"/>
 <path d="M3107 3664 c-4 -4 -7 -123 -7 -264 0 -273 3 -290 47 -276 10 3 88 95 173 203 l155 198 3 -207 c2 -198 3 -207 23 -213 47 -15 50 -1 47 279 l-3 261 -30 2 c-26 2 -36 -5 -70 -50 -22 -28 -91 -117 -155 -197 l-115 -145 -5 205 -5 205 -25 3 c-14 2 -29 0 -33 -4z"/>
 <path d="M4975 3661 c-84 -22 -154 -80 -196 -161 -19 -36 -23 -60 -23 -125 1 -90 16 -134 66 -190 52 -59 101 -80 193 -80 71 0 86 3 135 31 47 27 55 36 55 60 0 40 -23 41 -81 5 -118 -75 -259 -13 -294 131 -18 70 8 150 66 205 70 67 154 79 244 33 47 -24 72 -17 68 19 -6 52 -146 95 -233 72z"/>
 <path d="M6487 3654 c-4 -4 -7 -97 -7 -206 0 -213 3 -223 49 -198 21 11 21 17 19 208 l-3 197 -25 3 c-14 2 -29 0 -33 -4z"/>
 <path d="M3701 3636 c-8 -9 -11 -90 -9 -272 l3 -259 30 0 c27 0 44 19 180 197 82 108 153 197 157 197 4 1 9 -90 10 -201 l3 -203 24 -3 c13 -2 28 2 32 10 5 7 9 126 9 263 0 352 0 352 -210 78 -83 -109 -155 -199 -161 -201 -5 -2 -9 76 -9 196 0 173 -2 201 -16 206 -23 9 -30 8 -43 -8z"/>
 <path d="M4464 3643 c-121 -3 -165 -7 -173 -17 -8 -9 -11 -92 -9 -272 l3 -259 170 -3 c204 -3 217 -1 213 36 l-3 27 -158 3 -158 3 3 82 3 82 115 5 115 5 0 30 0 30 -117 3 -118 3 0 84 0 85 83 1 c45 1 116 4 157 8 69 6 75 8 78 30 4 23 -13 43 -33 39 -5 -2 -83 -4 -171 -5z"/>
 <path d="M1881 3061 c-7 -13 -6 -23 3 -36 10 -14 56 -23 247 -45 717 -86 1309 -120 2094 -120 606 0 1046 19 1565 65 265 24 712 76 737 86 24 9 33 52 13 64 -5 3 -62 -1 -127 -9 -493 -63 -1010 -105 -1568 -127 -326 -13 -1230 -7 -1520 10 -458 27 -919 68 -1255 111 -188 24 -177 24 -189 1z"/>
 <path d="M3102 2635 l3 -49 217 -87 216 -87 114 102 c155 140 150 133 86 140 -29 3 -136 8 -238 11 -102 3 -234 8 -293 12 l-108 6 3 -48z"/>
 <path d="M2185 2559 c-10 -28 -23 -53 -31 -56 -7 -3 -34 2 -59 11 -25 8 -51 13 -58 10 -7 -2 -20 -25 -29 -51 -20 -56 -14 -67 43 -85 56 -16 62 -27 44 -78 -24 -68 -21 -76 35 -95 60 -20 71 -14 89 47 7 24 18 46 24 50 6 3 33 -2 60 -12 27 -10 54 -17 61 -14 15 6 46 98 37 112 -3 5 -25 16 -49 23 -61 18 -67 29 -48 86 9 25 16 52 16 59 0 11 -78 44 -106 44 -7 0 -20 -23 -29 -51z"/>
 <path d="M4610 2579 c-9 -16 -9 -28 -1 -45 20 -45 65 -19 59 33 -4 36 -41 44 -58 12z"/>
 <path d="M5127 2541 c-2 -10 2 -33 9 -50 11 -25 19 -32 36 -29 29 4 35 40 14 74 -19 28 -52 32 -59 5z"/>
 <path d="M4549 2416 c-13 -28 -7 -54 16 -62 25 -10 46 16 43 50 -4 41 -42 49 -59 12z"/>
 <path d="M2631 2259 c-6 -18 -11 -34 -11 -35 0 -2 15 -10 33 -18 70 -29 72 -29 86 10 15 41 17 37 -33 58 -54 22 -62 20 -75 -15z"/>
 <path d="M4876 2274 c-19 -19 -20 -26 -4 -42 18 -18 53 -15 79 7 20 16 21 21 10 35 -17 20 -65 21 -85 0z"/>
 <path d="M3592 2147 c-30 -32 -29 -87 1 -115 50 -47 137 -10 137 58 0 69 -91 107 -138 57z"/>
 <path d="M3050 2121 c-24 -47 -12 -57 74 -63 66 -4 69 13 6 51 -59 36 -66 37 -80 12z"/>
 <path d="M3355 2058 c-31 -16 -45 -39 -45 -71 0 -39 14 -62 48 -76 53 -22 111 16 111 74 0 34 -14 56 -46 73 -27 15 -42 15 -68 0z"/>
 <path d="M3726 1907 c-54 -54 -20 -137 55 -137 101 0 107 141 7 156 -30 5 -41 2 -62 -19z"/>
 <path d="M3482 1813 c-17 -6 -42 -57 -42 -83 0 -58 97 -93 140 -50 31 31 27 93 -6 119 -25 20 -63 26 -92 14z"/>
 <path d="M5247 2143 c-21 -20 22 -63 63 -63 23 0 30 5 30 19 0 32 -72 66 -93 44z"/>
 <path d="M5520 2052 c0 -28 34 -54 66 -50 35 4 41 21 15 47 -27 27 -81 29 -81 3z"/>
 <path d="M5030 1951 c0 -51 61 -72 68 -23 5 30 -14 52 -44 52 -20 0 -24 -5 -24 -29z"/>
 <path d="M5084 1795 c-10 -25 5 -63 26 -70 27 -8 40 1 40 30 0 43 -53 75 -66 40z"/>
 <path d="M5495 1705 c-30 -29 -30 -59 0 -63 26 -4 68 40 63 64 -5 29 -35 28 -63 -1z"/>
 <path d="M5126 1625 c-3 -8 -1 -27 4 -41 8 -20 16 -25 38 -22 19 2 28 9 30 24 6 41 -58 75 -72 39z"/>
 </g>

</svg>